<svg width="525" height="278" viewBox="0 0 525 278" fill="none" xmlns="http://www.w3.org/2000/svg">
<path id="ketida" d="M77.6543 183C74.7573 183 72.3432 182.303 70.4118 180.908C68.4805 179.513 67.5149 177.957 67.5149 176.24V68.4087C67.5149 66.4774 68.4805 64.9216 70.4118 63.7414C72.3432 62.5611 74.7573 61.971 77.6543 61.971C80.6585 61.971 83.18 62.5611 85.2186 63.7414C87.2572 64.9216 88.2765 66.4774 88.2765 68.4087V135.844L118.695 107.357C119.768 106.284 121.109 105.747 122.718 105.747C124.328 105.747 125.883 106.284 127.386 107.357C128.995 108.323 130.283 109.556 131.248 111.059C132.321 112.561 132.858 114.116 132.858 115.726C132.858 116.37 132.697 117.067 132.375 117.818C132.16 118.462 131.731 119.052 131.087 119.589L112.096 136.809L135.916 170.607C136.667 171.788 137.042 172.914 137.042 173.987C137.042 175.597 136.398 177.206 135.111 178.815C133.823 180.425 132.268 181.766 130.444 182.839C128.619 183.805 126.849 184.288 125.132 184.288C122.986 184.288 121.27 183.376 119.982 181.552L98.4159 149.685L88.2765 158.698V176.24C88.2765 177.957 87.2572 179.513 85.2186 180.908C83.18 182.303 80.6585 183 77.6543 183ZM181.519 184.448C173.901 184.448 167.141 183.107 161.24 180.425C155.446 177.635 150.886 173.773 147.56 168.837C144.234 163.794 142.571 158 142.571 151.455V137.775C142.571 131.981 144.127 126.67 147.238 121.842C150.457 116.906 154.695 112.99 159.953 110.093C165.317 107.089 171.272 105.587 177.817 105.587C183.826 105.587 189.298 106.874 194.233 109.449C199.276 112.024 203.354 115.565 206.465 120.071C209.577 124.578 211.132 129.835 211.132 135.844C211.132 140.457 210.381 143.784 208.879 145.822C207.377 147.754 205.446 148.987 203.085 149.524C200.832 149.953 198.472 150.168 196.004 150.168H163.332V152.582C163.332 157.196 165.049 160.951 168.483 163.848C172.023 166.637 176.583 168.032 182.163 168.032C185.703 168.032 188.654 167.496 191.015 166.423C193.375 165.35 195.414 164.331 197.13 163.365C198.847 162.399 200.457 161.916 201.959 161.916C203.568 161.916 204.963 162.453 206.143 163.526C207.323 164.599 208.235 165.886 208.879 167.389C209.523 168.783 209.845 170.017 209.845 171.09C209.845 172.914 208.665 174.899 206.304 177.045C204.051 179.084 200.778 180.854 196.487 182.356C192.302 183.751 187.313 184.448 181.519 184.448ZM163.332 137.936H186.83C188.654 137.936 189.888 137.668 190.532 137.131C191.283 136.488 191.658 135.307 191.658 133.591C191.658 131.123 190.961 128.923 189.566 126.992C188.279 125.061 186.562 123.558 184.416 122.486C182.377 121.413 180.07 120.876 177.495 120.876C175.028 120.876 172.721 121.413 170.575 122.486C168.429 123.451 166.659 124.9 165.264 126.831C163.976 128.655 163.332 130.855 163.332 133.43V137.936ZM253.034 183C243.378 183 235.974 180.908 230.824 176.723C225.781 172.539 223.26 165.886 223.26 156.766V78.87C223.26 76.9387 224.386 75.3829 226.64 74.2027C228.893 73.0224 231.2 72.4323 233.56 72.4323C236.135 72.4323 238.496 73.0224 240.642 74.2027C242.895 75.3829 244.021 76.9387 244.021 78.87V106.552H263.013C264.729 106.552 266.017 107.357 266.875 108.966C267.841 110.468 268.324 112.185 268.324 114.116C268.324 116.048 267.841 117.818 266.875 119.428C266.017 120.93 264.729 121.681 263.013 121.681H244.021V156.766C244.021 159.985 244.665 162.238 245.953 163.526C247.347 164.813 249.708 165.457 253.034 165.457H259.311C262.315 165.457 264.515 166.369 265.91 168.193C267.412 170.017 268.163 172.002 268.163 174.148C268.163 176.401 267.412 178.44 265.91 180.264C264.515 182.088 262.315 183 259.311 183H253.034ZM289.206 89.4922C286.094 89.4922 283.412 88.4729 281.159 86.4343C278.906 84.2884 277.779 81.9279 277.779 79.3528C277.779 76.5632 278.906 74.2027 281.159 72.2714C283.412 70.2328 286.094 69.2135 289.206 69.2135C292.425 69.2135 295.107 70.2328 297.253 72.2714C299.399 74.2027 300.472 76.5632 300.472 79.3528C300.472 81.9279 299.399 84.2884 297.253 86.4343C295.107 88.4729 292.425 89.4922 289.206 89.4922ZM289.206 183C286.202 183 283.734 182.303 281.803 180.908C279.871 179.513 278.906 177.957 278.906 176.24V112.99C278.906 111.059 279.871 109.503 281.803 108.323C283.734 107.142 286.202 106.552 289.206 106.552C292.103 106.552 294.571 107.142 296.609 108.323C298.648 109.503 299.667 111.059 299.667 112.99V176.24C299.667 177.957 298.648 179.513 296.609 180.908C294.571 182.303 292.103 183 289.206 183ZM340.955 184.448C335.913 184.448 331.245 182.893 326.953 179.781C322.662 176.67 319.228 172.592 316.653 167.549C314.078 162.507 312.79 157.142 312.79 151.455V138.258C312.79 132.249 314.078 126.777 316.653 121.842C319.228 116.906 322.662 112.99 326.953 110.093C331.245 107.089 336.02 105.587 341.277 105.587C346.32 105.587 350.612 106.874 354.153 109.449C357.693 111.917 360.322 114.707 362.039 117.818V68.4087C362.039 66.4774 363.058 64.9216 365.097 63.7414C367.135 62.5611 369.657 61.971 372.661 61.971C375.558 61.971 377.972 62.5611 379.904 63.7414C381.835 64.9216 382.801 66.4774 382.801 68.4087V176.24C382.801 177.957 381.835 179.513 379.904 180.908C377.972 182.303 375.558 183 372.661 183C370.086 183 367.887 182.303 366.062 180.908C364.238 179.513 363.326 177.957 363.326 176.24V171.734C361.717 175.06 358.82 178.011 354.636 180.586C350.558 183.161 345.998 184.448 340.955 184.448ZM347.554 166.262C350.344 166.262 352.812 165.511 354.957 164.009C357.103 162.399 358.82 160.683 360.108 158.859C361.395 156.927 362.039 155.425 362.039 154.352V138.258C362.039 135.254 361.288 132.679 359.786 130.533C358.391 128.387 356.567 126.724 354.314 125.543C352.168 124.363 349.968 123.773 347.715 123.773C345.14 123.773 342.726 124.524 340.473 126.026C338.327 127.421 336.61 129.191 335.322 131.337C334.142 133.483 333.552 135.79 333.552 138.258V151.455C333.552 153.923 334.142 156.283 335.322 158.537C336.61 160.79 338.327 162.668 340.473 164.17C342.618 165.565 344.979 166.262 347.554 166.262ZM415.4 184.448C409.714 184.448 404.778 182.732 400.594 179.298C396.516 175.758 394.478 170.339 394.478 163.043C394.478 156.927 396.033 152.153 399.145 148.719C402.364 145.286 406.763 142.872 412.342 141.477C418.029 140.082 424.574 139.385 431.977 139.385H438.576V137.292C438.576 134.932 438.093 132.625 437.128 130.372C436.269 128.119 434.821 126.241 432.782 124.739C430.851 123.237 428.061 122.486 424.413 122.486C420.336 122.486 417.171 122.915 414.917 123.773C412.772 124.524 411.108 125.329 409.928 126.187C408.748 127.046 407.46 127.475 406.066 127.475C403.812 127.475 402.042 126.348 400.754 124.095C399.574 121.842 398.984 119.535 398.984 117.174C398.984 114.921 400.325 112.936 403.008 111.22C405.797 109.395 409.177 108.001 413.147 107.035C417.117 106.069 420.98 105.587 424.735 105.587C433.104 105.587 439.81 107.089 444.853 110.093C449.896 113.097 453.544 116.96 455.797 121.681C458.157 126.402 459.338 131.498 459.338 136.97V176.24C459.338 178.172 458.372 179.781 456.441 181.069C454.509 182.356 452.095 183 449.198 183C446.516 183 444.263 182.356 442.439 181.069C440.722 179.781 439.864 178.172 439.864 176.24V171.734C436.967 175.06 433.533 178.011 429.563 180.586C425.701 183.161 420.98 184.448 415.4 184.448ZM423.769 168.998C426.022 168.998 428.276 168.247 430.529 166.745C432.782 165.243 434.66 163.311 436.162 160.951C437.771 158.59 438.576 156.123 438.576 153.547V150.168H436.162C432.621 150.168 429.241 150.382 426.022 150.811C422.804 151.241 420.175 152.206 418.136 153.708C416.205 155.103 415.239 157.303 415.239 160.307C415.239 163.311 416.044 165.511 417.653 166.906C419.37 168.301 421.409 168.998 423.769 168.998Z" fill="#646566"></path>
<rect id="blue" x="66" y="211" width="90" height="9" rx="4.5" fill="#3F85C6"></rect>
<rect id="green" x="168" y="211" width="89" height="9" rx="4.5" fill="#80AF43"></rect>
<rect id="orange" x="270" y="211" width="89" height="9" rx="4.5" fill="#F6AB1B"></rect>
<rect id="yellow" x="371" y="211" width="90" height="9" rx="4.5" fill="#E8E61A"></rect>
</svg>
